<?xml version="1.0" standalone="no"?>
<!DOCTYPE svg PUBLIC "-//W3C//DTD SVG 20010904//EN"
 "http://www.w3.org/TR/2001/REC-SVG-20010904/DTD/svg10.dtd">
<svg version="1.0" xmlns="http://www.w3.org/2000/svg"
 width="512.000000pt" height="512.000000pt" viewBox="0 0 512.000000 512.000000"
 preserveAspectRatio="xMidYMid meet">
<metadata>
Created by potrace 1.14, written by Peter Selinger 2001-2017
</metadata>
<g transform="translate(0.000000,512.000000) scale(0.100000,-0.100000)"
fill="#000000" stroke="none">
<path d="M4620 4988 c-41 -16 -84 -32 -95 -37 -11 -5 -36 -15 -55 -21 -19 -7
-48 -19 -65 -25 -16 -7 -68 -27 -115 -45 -93 -36 -115 -51 -136 -92 -31 -59
-6 -131 56 -163 42 -22 58 -19 176 25 59 23 108 40 109 38 2 -2 -5 -28 -15
-58 -36 -105 -178 -516 -270 -780 -50 -146 -106 -307 -124 -358 l-32 -93 -240
247 c-529 547 -505 524 -552 524 -86 0 -103 -20 -191 -225 -5 -11 -18 -40 -29
-65 -10 -25 -38 -90 -61 -146 l-43 -100 -77 11 c-85 12 -235 13 -321 1 -383
-53 -724 -298 -894 -642 -41 -84 -88 -213 -100 -279 -4 -16 -9 -41 -12 -55
-10 -42 -12 -304 -4 -351 5 -24 11 -60 14 -79 19 -126 116 -341 209 -465 59
-79 175 -197 229 -233 21 -13 38 -29 38 -34 0 -8 -33 -91 -70 -173 -10 -22
-28 -64 -40 -92 -12 -29 -24 -53 -25 -53 -4 0 -226 232 -335 350 -18 19 -96
102 -173 183 -78 82 -150 159 -162 172 -58 65 -150 67 -199 2 -13 -18 -67
-108 -119 -202 -52 -93 -107 -192 -122 -220 -16 -27 -90 -160 -165 -295 -76
-135 -179 -319 -230 -410 -51 -91 -103 -183 -115 -205 -12 -22 -44 -78 -70
-125 -73 -127 -85 -155 -85 -195 0 -39 28 -88 59 -105 52 -27 121 -15 156 29
11 14 192 334 403 711 211 377 390 695 398 708 l15 23 32 -34 c18 -19 63 -67
102 -108 75 -81 178 -189 325 -345 52 -55 127 -134 167 -177 40 -42 84 -84 97
-93 33 -21 87 -20 125 2 35 21 50 49 171 335 l83 196 81 -27 c152 -52 355 -74
511 -55 33 4 62 9 65 10 3 2 25 6 48 10 67 10 189 53 285 101 266 132 477 373
581 662 14 40 28 85 31 100 50 233 41 470 -25 657 -12 33 -24 69 -27 80 -12
38 -85 170 -131 235 -49 69 -181 206 -247 256 -56 42 -164 108 -202 123 -18 8
-33 17 -33 21 0 10 101 243 110 253 6 7 76 -61 343 -338 421 -438 418 -435
490 -421 59 11 79 46 162 281 42 121 80 229 85 240 10 22 226 634 298 843 25
73 49 129 52 125 4 -5 19 -40 34 -79 36 -96 79 -134 143 -128 70 6 119 69 111
141 -7 54 -176 493 -201 520 -20 22 -68 42 -97 40 -8 0 -49 -13 -90 -29z"/>
</g>
</svg>
